<?xml version="1.0" encoding="UTF-8" standalone="no"?>
<!-- Created with Inkscape (http://www.inkscape.org/) -->

<svg
   width="256"
   height="256"
   viewBox="0 0 67.733334 67.733334"
   version="1.1"
   id="svg1"
   inkscape:version="1.3.2 (091e20e, 2023-11-25, custom)"
   sodipodi:docname="logo.svg"
   inkscape:export-filename="logo.png"
   inkscape:export-xdpi="96"
   inkscape:export-ydpi="96"
   xmlns:inkscape="http://www.inkscape.org/namespaces/inkscape"
   xmlns:sodipodi="http://sodipodi.sourceforge.net/DTD/sodipodi-0.dtd"
   xmlns="http://www.w3.org/2000/svg"
   xmlns:svg="http://www.w3.org/2000/svg">
  <sodipodi:namedview
     id="namedview1"
     pagecolor="#b5b5b5"
     bordercolor="#000000"
     borderopacity="0.25"
     inkscape:showpageshadow="2"
     inkscape:pageopacity="0.0"
     inkscape:pagecheckerboard="true"
     inkscape:deskcolor="#d1d1d1"
     inkscape:document-units="mm"
     inkscape:zoom="2.1997092"
     inkscape:cx="94.557953"
     inkscape:cy="118.42474"
     inkscape:window-width="1920"
     inkscape:window-height="1111"
     inkscape:window-x="-9"
     inkscape:window-y="-9"
     inkscape:window-maximized="1"
     inkscape:current-layer="layer1" />
  <defs
     id="defs1" />
  <g
     inkscape:label="Layer 1"
     inkscape:groupmode="layer"
     id="layer1">
    <ellipse
       style="fill:#ffffff;fill-opacity:1;stroke-width:0.279929;stroke-linecap:round;stroke-linejoin:round"
       id="path4"
       cx="33.866665"
       cy="33.866669"
       rx="33.866665"
       ry="33.866669" />
    <rect
       style="fill:#253542;fill-opacity:1;stroke:none;stroke-width:0.279929;stroke-linecap:round;stroke-linejoin:round"
       id="rect1"
       width="25.635923"
       height="28.475042"
       x="21.048704"
       y="23.449944" />
    <circle
       style="fill:#253542;fill-opacity:1;stroke:none;stroke-width:0.279929;stroke-linecap:round;stroke-linejoin:round"
       id="path2"
       cx="33.866787"
       cy="23.449944"
       r="12.817842" />
    <path
       id="path2-7"
       style="fill:#ffffff;fill-opacity:1;stroke:none;stroke-width:0.279929;stroke-linecap:round;stroke-linejoin:round"
       d="m 33.866666,13.34002 c -5.583567,4.7e-5 -10.109931,4.52641 -10.109978,10.109977 0.0067,2.542734 0.971376,4.989558 2.701644,6.852812 v 9.959081 h 14.816667 v -9.958564 c 1.730389,-1.863385 2.695031,-4.310417 2.701644,-6.853329 -4.7e-5,-5.583566 -4.526411,-10.10993 -10.109977,-10.109977 z"
       sodipodi:nodetypes="cccccccc" />
    <rect
       style="fill:#d9b45d;fill-opacity:1;stroke:none;stroke-width:0.279929;stroke-linecap:round;stroke-linejoin:round"
       id="rect2"
       width="8.3350515"
       height="4.0024905"
       x="23.756601"
       y="49.923737" />
    <rect
       style="fill:#d9b45d;fill-opacity:1;stroke:none;stroke-width:0.279929;stroke-linecap:round;stroke-linejoin:round"
       id="rect2-6"
       width="8.3350515"
       height="4.0024905"
       x="35.641678"
       y="49.923737" />
    <circle
       style="fill:#ffffff;fill-opacity:1;stroke-width:0.279929;stroke-linecap:round;stroke-linejoin:round"
       id="path6"
       cx="33.866665"
       cy="40.261887"
       r="7.4083347" />
    <path
       style="fill:#253542;fill-opacity:1;stroke-width:0.279929;stroke-linecap:round;stroke-linejoin:round"
       d="m 26.458332,30.302809 c 0.05681,0.06431 7.126587,6.016473 7.126587,6.016473 1.224791,1.052285 1.481978,2.410494 1.069536,3.156856 -0.412441,0.74636 -1.782416,1.283485 -3.260359,0.534766 l -6.537962,-3.312108 z"
       id="path3"
       sodipodi:nodetypes="cszscc" />
    <path
       style="fill:#253542;fill-opacity:1;stroke-width:0.279929;stroke-linecap:round;stroke-linejoin:round"
       d="m 41.274999,30.303326 c -0.05681,0.06431 -7.126587,6.016473 -7.126587,6.016473 -1.224791,1.052285 -1.481978,2.410494 -1.069536,3.156856 0.412441,0.74636 1.782416,1.283485 3.260359,0.534766 l 6.537962,-3.312108 z"
       id="path3-5"
       sodipodi:nodetypes="cszscc" />
    <circle
       style="fill:#000000;fill-opacity:1;stroke-width:0.279929;stroke-linecap:round;stroke-linejoin:round"
       id="path4-0"
       cx="38.329163"
       cy="22.338331"
       r="1.6963413" />
    <circle
       style="fill:#000000;fill-opacity:1;stroke-width:0.279929;stroke-linecap:round;stroke-linejoin:round"
       id="path4-0-0"
       cx="29.404171"
       cy="22.21356"
       r="1.6963413" />
    <path
       id="path5"
       style="fill:#d9b45d;fill-opacity:1;stroke-width:0.279928;stroke-linecap:round;stroke-linejoin:round"
       d="m 31.737176,24.635909 2.129611,4.167388 2.129609,-4.167388 h -2.129609 z" />
    <g
       id="g4"
       transform="rotate(3.7,34.477508,31.812564)">
      <path
         d="M 7.9404108,30.971627 4.5673924,30.524905 4.3807148,31.934433 3.4451331,31.810524 3.9587003,27.932784 4.894282,28.056692 4.7076044,29.46622 8.0806228,29.912942 Z M 8.3698259,28.033366 4.2177177,26.748978 4.53331,25.728746 6.1289059,26.222318 6.6573396,24.514022 5.0617437,24.02045 5.377336,23.000218 9.5294443,24.284605 9.213852,25.304837 7.5885981,24.802091 7.0601645,26.510387 8.6854183,27.013133 Z m 1.4541295,-4.415386 -3.8803518,-1.957683 1.5437732,-3.059935 0.8259606,0.416707 -1.0627424,2.106477 0.6984633,0.352383 0.7019693,-1.391383 0.7982438,0.402723 -0.7019693,1.391383 0.7317235,0.369163 1.0739294,-2.12865 0.82596,0.416707 z M 12.375434,18.979604 8.9812763,16.264949 10.412287,14.475743 q 0.267587,-0.334567 0.618589,-0.475211 0.350032,-0.14937 0.717541,-0.101901 0.367509,0.04747 0.687529,0.303422 0.305474,0.244319 0.432543,0.592414 0.122219,0.344216 0.05342,0.718516 -0.0688,0.374299 -0.33251,0.704017 l -0.763982,0.955213 1.217048,0.973398 z m -1.238548,-2.358078 0.68642,-0.858237 q 0.147367,-0.184254 0.129889,-0.381094 -0.01748,-0.19684 -0.187185,-0.332573 -0.174557,-0.139611 -0.370426,-0.113406 -0.200719,0.02233 -0.348086,0.206581 l -0.686419,0.858237 z m 3.989433,-0.972623 -2.91527,-3.223484 2.541947,-2.298899 0.620536,0.686142 -1.749891,1.582575 0.524749,0.580227 1.155849,-1.045333 0.599713,0.663117 -1.15585,1.045333 0.549737,0.607857 1.768312,-1.599234 0.620536,0.686142 z M 18.1812,12.933315 15.8476,9.2667144 16.696156,8.7266526 19.715329,9.7931597 18.36184,7.6665312 l 0.848556,-0.5400619 2.333601,3.6666007 -0.796176,0.506725 -3.124892,-1.116978 1.406827,2.210437 z M 24.231847,9.703 Q 23.776663,9.8857566 23.322398,9.8874969 22.865819,9.8834754 22.452849,9.7214415 22.043327,9.5513325 21.725865,9.2439019 21.411851,8.928396 21.236035,8.4904974 21.060218,8.0525988 21.07118,7.6133058 21.08559,7.1659376 21.260326,6.7679395 21.43851,6.3618662 21.767853,6.0489874 22.094882,5.7303468 22.544305,5.5499036 23.057107,5.3440132 23.597886,5.374444 24.136351,5.399113 24.572499,5.6522009 L 24.127476,6.5601581 Q 23.829785,6.3852926 23.519609,6.3626344 23.215195,6.3376628 22.909818,6.4602717 22.667821,6.5574334 22.49741,6.7329041 22.330447,6.9002996 22.237338,7.11833 q -0.08735,0.215717 -0.08818,0.4636051 0.0049,0.2455747 0.106718,0.4990949 0.101788,0.2535202 0.276124,0.4377689 0.172022,0.1784868 0.392366,0.2773568 0.223792,0.090795 0.468231,0.099702 0.247889,8.324e-4 0.495647,-0.098643 0.236235,-0.094848 0.393988,-0.2518553 0.163514,-0.1593203 0.243964,-0.3588869 0.08045,-0.1995666 0.06404,-0.4070787 L 23.501253,8.2166224 23.15656,7.3581107 25.317244,6.490595 25.432912,6.7786862 q 0.182757,0.4551841 0.182184,0.9036874 0.0029,0.4404281 -0.158023,0.8395612 -0.157451,0.391058 -0.469508,0.6969967 Q 24.675507,9.5248701 24.231847,9.703 Z M 28.699754,8.3650038 Q 28.109471,8.4845281 27.624499,8.3420023 27.14438,8.1921589 26.819563,7.8081523 26.494746,7.4241458 26.376454,6.8399483 l -0.486723,-2.4037292 1.046687,-0.2119399 0.486723,2.4037292 q 0.05791,0.2860133 0.21181,0.4829076 0.152665,0.1908089 0.376894,0.2657684 0.230316,0.073727 0.498073,0.01951 0.273842,-0.055449 0.445163,-0.2105025 0.177406,-0.1562853 0.243816,-0.3914537 0.06518,-0.2412538 0.0073,-0.5272672 L 28.719438,3.8632419 29.766125,3.651302 30.252847,6.0550312 q 0.11706,0.5781121 -0.03887,1.0594631 -0.149844,0.4801189 -0.539936,0.8061682 -0.384006,0.324817 -0.974289,0.4443413 z m 2.595902,-0.4587243 -0.33972,-4.3329256 1.064662,-0.083474 0.33972,4.3329256 z m 1.786414,-0.1858 0.201009,-4.3415722 1.004764,0.046519 1.855729,2.6094272 0.116585,-2.5181119 1.004764,0.046519 -0.201009,4.3415722 -0.942741,-0.043648 -1.913157,-2.7115347 -0.12118,2.6173479 z m 7.983767,1.1394759 Q 40.586641,8.7292145 40.21746,8.4547219 39.855903,8.1758735 39.630494,7.7990187 39.405085,7.4221638 39.337603,6.9854235 q -0.05986,-0.441096 0.06435,-0.8963323 0.125838,-0.4612262 0.399783,-0.8048137 0.28157,-0.3479431 0.667136,-0.5581034 0.391557,-0.2085261 0.842998,-0.259125 0.459066,-0.054955 0.932272,0.074152 0.347417,0.094787 0.655072,0.2881349 0.307655,0.1933478 0.538521,0.4558465 0.238489,0.258143 0.361529,0.5620172 l -0.88114,0.4932802 Q 42.773303,5.9984845 42.535353,5.7855396 42.303394,5.574229 41.985926,5.4876132 41.734348,5.4189743 41.486572,5.4543459 41.24642,5.4853617 41.040566,5.6029654 40.834712,5.720569 40.684395,5.9176832 q -0.150316,0.1971143 -0.222224,0.4606721 -0.07027,0.2575679 -0.04089,0.50371 0.037,0.2417864 0.152975,0.45363 0.123593,0.207488 0.320708,0.3578049 0.203104,0.1519511 0.466662,0.2238586 0.305487,0.083347 0.599009,0.021842 0.299511,-0.059871 0.579433,-0.2602402 l 0.495461,0.8495559 Q 42.776845,8.7218078 42.444655,8.830686 42.1141,8.9335742 41.75687,8.9455191 41.401275,8.951474 41.065837,8.8599554 Z m 4.038012,1.5453726 Q 44.661471,10.193444 44.353107,9.8598709 44.047424,9.520698 43.89326,9.1095263 43.741778,8.6927549 43.753721,8.2509934 q 0.02023,-0.4446792 0.224062,-0.8702576 0.203838,-0.4255783 0.534964,-0.7144617 0.339409,-0.2918011 0.756416,-0.4294015 0.419689,-0.1432001 0.872885,-0.1120115 0.455879,0.025589 0.898256,0.2374726 0.442378,0.2118836 0.748061,0.5510565 0.308364,0.3335732 0.459846,0.7503446 0.154164,0.4111717 0.133939,0.8558509 -0.01194,0.4417615 -0.21578,0.8673398 -0.203838,0.4255784 -0.543246,0.7173795 -0.331127,0.288883 -0.750816,0.432083 -0.417007,0.137601 -0.872885,0.112012 -0.453197,-0.03119 -0.895574,-0.243072 z m 0.423767,-0.8847552 q 0.235188,0.112647 0.477009,0.1252059 0.244503,0.00696 0.462511,-0.074499 0.223608,-0.078776 0.406841,-0.2457347 0.185914,-0.1725581 0.301243,-0.4133459 0.118012,-0.2463874 0.133252,-0.4938079 0.01524,-0.2474206 -0.06354,-0.4710288 -0.07318,-0.2209262 -0.234535,-0.4014765 -0.158677,-0.18615 -0.393865,-0.298797 -0.235188,-0.112647 -0.479691,-0.1196062 -0.241821,-0.012559 -0.465429,0.066218 -0.218008,0.081458 -0.401241,0.2484168 -0.183232,0.1669584 -0.298561,0.4077461 -0.118011,0.2463875 -0.135934,0.4994077 -0.01524,0.2474206 0.05794,0.4683467 0.07878,0.2236083 0.237453,0.4097583 0.161359,0.1805503 0.396547,0.2931965 z m 2.20062,2.1202732 2.631027,-3.4593856 1.07241,0.8156185 -0.385379,2.2810931 2.095304,-0.980614 1.072409,0.815619 -2.631027,3.459385 -0.800601,-0.608895 1.792858,-2.357324 -2.741582,1.245745 0.475788,-2.9845896 -1.800374,2.3672086 z m 4.337625,3.484918 3.198676,-2.94247 1.551101,1.686159 q 0.290044,0.315299 0.375745,0.68359 0.09447,0.368657 -0.0083,0.724693 -0.102737,0.356035 -0.404327,0.633468 -0.28788,0.264822 -0.651236,0.337547 -0.358786,0.06852 -0.718294,-0.05633 -0.359507,-0.124853 -0.645347,-0.435581 l -0.828095,-0.900199 -1.146953,1.055086 z m 2.518835,-0.866026 0.744024,0.808808 q 0.159734,0.173642 0.356945,0.186264 0.197211,0.01262 0.357145,-0.134502 0.164503,-0.151327 0.168352,-0.348904 0.0084,-0.20178 -0.151316,-0.375423 l -0.744025,-0.808808 z m -0.269195,3.2429 4.608541,-0.909038 0.674248,1.020534 -2.657672,3.86185 -0.636599,-0.963549 0.656438,-0.90996 -0.934364,-1.414242 -1.097951,0.241692 z m 2.598277,0.486081 0.581839,0.880664 0.872907,-1.201809 z m 0.151691,3.792649 3.996341,-1.708482 0.395391,0.924868 -1.541738,2.8064 2.317877,-0.99092 0.395392,0.924868 -3.996341,1.708482 -0.370985,-0.867777 1.608677,-2.902542 -2.409223,1.029971 z m 2.096116,5.704163 1.579077,-0.364144 2.251391,-2.367019 0.276247,1.197921 -1.48106,1.507588 1.993095,0.7128 0.2609,1.13137 -3.0606,-1.142042 -1.579078,0.364144 z m 2.001474,5.028048 q -0.01076,-0.217045 0.07985,-0.395599 0.09681,-0.178861 0.259023,-0.292583 0.168717,-0.107828 0.379561,-0.118279 0.210843,-0.01045 0.383196,0.08047 0.178862,0.09681 0.286689,0.265532 0.114029,0.16841 0.124788,0.385454 0.01076,0.217045 -0.08606,0.395906 -0.09061,0.178555 -0.25933,0.286382 -0.162209,0.113722 -0.373052,0.124173 -0.210843,0.01045 -0.389705,-0.08636 -0.172353,-0.09092 -0.286382,-0.25933 -0.107827,-0.168718 -0.118586,-0.385762 z"
         id="text1"
         style="font-weight:900;font-size:6.20889px;line-height:1;font-family:'Red Hat Display';-inkscape-font-specification:'Red Hat Display, Heavy';text-align:center;text-anchor:middle;fill:#253542;stroke-width:0.279929;stroke-linecap:round;stroke-linejoin:round"
         transform="rotate(-1.02,33.835253,19.481976)"
         aria-label=" THE PENGUIN COMPANY •" />
      <path
         d="M 7.9404108,30.971627 4.5673924,30.524905 4.3807148,31.934433 3.4451331,31.810524 3.9587003,27.932784 4.894282,28.056692 4.7076044,29.46622 8.0806228,29.912942 Z M 8.3698259,28.033366 4.2177177,26.748978 4.53331,25.728746 6.1289059,26.222318 6.6573396,24.514022 5.0617437,24.02045 5.377336,23.000218 9.5294443,24.284605 9.213852,25.304837 7.5885981,24.802091 7.0601645,26.510387 8.6854183,27.013133 Z m 1.4541295,-4.415386 -3.8803518,-1.957683 1.5437732,-3.059935 0.8259606,0.416707 -1.0627424,2.106477 0.6984633,0.352383 0.7019693,-1.391383 0.7982438,0.402723 -0.7019693,1.391383 0.7317235,0.369163 1.0739294,-2.12865 0.82596,0.416707 z M 12.375434,18.979604 8.9812763,16.264949 10.412287,14.475743 q 0.267587,-0.334567 0.618589,-0.475211 0.350032,-0.14937 0.717541,-0.101901 0.367509,0.04747 0.687529,0.303422 0.305474,0.244319 0.432543,0.592414 0.122219,0.344216 0.05342,0.718516 -0.0688,0.374299 -0.33251,0.704017 l -0.763982,0.955213 1.217048,0.973398 z m -1.238548,-2.358078 0.68642,-0.858237 q 0.147367,-0.184254 0.129889,-0.381094 -0.01748,-0.19684 -0.187185,-0.332573 -0.174557,-0.139611 -0.370426,-0.113406 -0.200719,0.02233 -0.348086,0.206581 l -0.686419,0.858237 z m 3.989433,-0.972623 -2.91527,-3.223484 2.541947,-2.298899 0.620536,0.686142 -1.749891,1.582575 0.524749,0.580227 1.155849,-1.045333 0.599713,0.663117 -1.15585,1.045333 0.549737,0.607857 1.768312,-1.599234 0.620536,0.686142 z M 18.1812,12.933315 15.8476,9.2667144 16.696156,8.7266526 19.715329,9.7931597 18.36184,7.6665312 l 0.848556,-0.5400619 2.333601,3.6666007 -0.796176,0.506725 -3.124892,-1.116978 1.406827,2.210437 z M 24.231847,9.703 Q 23.776663,9.8857566 23.322398,9.8874969 22.865819,9.8834754 22.452849,9.7214415 22.043327,9.5513325 21.725865,9.2439019 21.411851,8.928396 21.236035,8.4904974 21.060218,8.0525988 21.07118,7.6133058 21.08559,7.1659376 21.260326,6.7679395 21.43851,6.3618662 21.767853,6.0489874 22.094882,5.7303468 22.544305,5.5499036 23.057107,5.3440132 23.597886,5.374444 24.136351,5.399113 24.572499,5.6522009 L 24.127476,6.5601581 Q 23.829785,6.3852926 23.519609,6.3626344 23.215195,6.3376628 22.909818,6.4602717 22.667821,6.5574334 22.49741,6.7329041 22.330447,6.9002996 22.237338,7.11833 q -0.08735,0.215717 -0.08818,0.4636051 0.0049,0.2455747 0.106718,0.4990949 0.101788,0.2535202 0.276124,0.4377689 0.172022,0.1784868 0.392366,0.2773568 0.223792,0.090795 0.468231,0.099702 0.247889,8.324e-4 0.495647,-0.098643 0.236235,-0.094848 0.393988,-0.2518553 0.163514,-0.1593203 0.243964,-0.3588869 0.08045,-0.1995666 0.06404,-0.4070787 L 23.501253,8.2166224 23.15656,7.3581107 25.317244,6.490595 25.432912,6.7786862 q 0.182757,0.4551841 0.182184,0.9036874 0.0029,0.4404281 -0.158023,0.8395612 -0.157451,0.391058 -0.469508,0.6969967 Q 24.675507,9.5248701 24.231847,9.703 Z M 28.699754,8.3650038 Q 28.109471,8.4845281 27.624499,8.3420023 27.14438,8.1921589 26.819563,7.8081523 26.494746,7.4241458 26.376454,6.8399483 l -0.486723,-2.4037292 1.046687,-0.2119399 0.486723,2.4037292 q 0.05791,0.2860133 0.21181,0.4829076 0.152665,0.1908089 0.376894,0.2657684 0.230316,0.073727 0.498073,0.01951 0.273842,-0.055449 0.445163,-0.2105025 0.177406,-0.1562853 0.243816,-0.3914537 0.06518,-0.2412538 0.0073,-0.5272672 L 28.719438,3.8632419 29.766125,3.651302 30.252847,6.0550312 q 0.11706,0.5781121 -0.03887,1.0594631 -0.149844,0.4801189 -0.539936,0.8061682 -0.384006,0.324817 -0.974289,0.4443413 z m 2.595902,-0.4587243 -0.33972,-4.3329256 1.064662,-0.083474 0.33972,4.3329256 z m 1.786414,-0.1858 0.201009,-4.3415722 1.004764,0.046519 1.855729,2.6094272 0.116585,-2.5181119 1.004764,0.046519 -0.201009,4.3415722 -0.942741,-0.043648 -1.913157,-2.7115347 -0.12118,2.6173479 z m 7.983767,1.1394759 Q 40.586641,8.7292145 40.21746,8.4547219 39.855903,8.1758735 39.630494,7.7990187 39.405085,7.4221638 39.337603,6.9854235 q -0.05986,-0.441096 0.06435,-0.8963323 0.125838,-0.4612262 0.399783,-0.8048137 0.28157,-0.3479431 0.667136,-0.5581034 0.391557,-0.2085261 0.842998,-0.259125 0.459066,-0.054955 0.932272,0.074152 0.347417,0.094787 0.655072,0.2881349 0.307655,0.1933478 0.538521,0.4558465 0.238489,0.258143 0.361529,0.5620172 l -0.88114,0.4932802 Q 42.773303,5.9984845 42.535353,5.7855396 42.303394,5.574229 41.985926,5.4876132 41.734348,5.4189743 41.486572,5.4543459 41.24642,5.4853617 41.040566,5.6029654 40.834712,5.720569 40.684395,5.9176832 q -0.150316,0.1971143 -0.222224,0.4606721 -0.07027,0.2575679 -0.04089,0.50371 0.037,0.2417864 0.152975,0.45363 0.123593,0.207488 0.320708,0.3578049 0.203104,0.1519511 0.466662,0.2238586 0.305487,0.083347 0.599009,0.021842 0.299511,-0.059871 0.579433,-0.2602402 l 0.495461,0.8495559 Q 42.776845,8.7218078 42.444655,8.830686 42.1141,8.9335742 41.75687,8.9455191 41.401275,8.951474 41.065837,8.8599554 Z m 4.038012,1.5453726 Q 44.661471,10.193444 44.353107,9.8598709 44.047424,9.520698 43.89326,9.1095263 43.741778,8.6927549 43.753721,8.2509934 q 0.02023,-0.4446792 0.224062,-0.8702576 0.203838,-0.4255783 0.534964,-0.7144617 0.339409,-0.2918011 0.756416,-0.4294015 0.419689,-0.1432001 0.872885,-0.1120115 0.455879,0.025589 0.898256,0.2374726 0.442378,0.2118836 0.748061,0.5510565 0.308364,0.3335732 0.459846,0.7503446 0.154164,0.4111717 0.133939,0.8558509 -0.01194,0.4417615 -0.21578,0.8673398 -0.203838,0.4255784 -0.543246,0.7173795 -0.331127,0.288883 -0.750816,0.432083 -0.417007,0.137601 -0.872885,0.112012 -0.453197,-0.03119 -0.895574,-0.243072 z m 0.423767,-0.8847552 q 0.235188,0.112647 0.477009,0.1252059 0.244503,0.00696 0.462511,-0.074499 0.223608,-0.078776 0.406841,-0.2457347 0.185914,-0.1725581 0.301243,-0.4133459 0.118012,-0.2463874 0.133252,-0.4938079 0.01524,-0.2474206 -0.06354,-0.4710288 -0.07318,-0.2209262 -0.234535,-0.4014765 -0.158677,-0.18615 -0.393865,-0.298797 -0.235188,-0.112647 -0.479691,-0.1196062 -0.241821,-0.012559 -0.465429,0.066218 -0.218008,0.081458 -0.401241,0.2484168 -0.183232,0.1669584 -0.298561,0.4077461 -0.118011,0.2463875 -0.135934,0.4994077 -0.01524,0.2474206 0.05794,0.4683467 0.07878,0.2236083 0.237453,0.4097583 0.161359,0.1805503 0.396547,0.2931965 z m 2.20062,2.1202732 2.631027,-3.4593856 1.07241,0.8156185 -0.385379,2.2810931 2.095304,-0.980614 1.072409,0.815619 -2.631027,3.459385 -0.800601,-0.608895 1.792858,-2.357324 -2.741582,1.245745 0.475788,-2.9845896 -1.800374,2.3672086 z m 4.337625,3.484918 3.198676,-2.94247 1.551101,1.686159 q 0.290044,0.315299 0.375745,0.68359 0.09447,0.368657 -0.0083,0.724693 -0.102737,0.356035 -0.404327,0.633468 -0.28788,0.264822 -0.651236,0.337547 -0.358786,0.06852 -0.718294,-0.05633 -0.359507,-0.124853 -0.645347,-0.435581 l -0.828095,-0.900199 -1.146953,1.055086 z m 2.518835,-0.866026 0.744024,0.808808 q 0.159734,0.173642 0.356945,0.186264 0.197211,0.01262 0.357145,-0.134502 0.164503,-0.151327 0.168352,-0.348904 0.0084,-0.20178 -0.151316,-0.375423 l -0.744025,-0.808808 z m -0.269195,3.2429 4.608541,-0.909038 0.674248,1.020534 -2.657672,3.86185 -0.636599,-0.963549 0.656438,-0.90996 -0.934364,-1.414242 -1.097951,0.241692 z m 2.598277,0.486081 0.581839,0.880664 0.872907,-1.201809 z m 0.151691,3.792649 3.996341,-1.708482 0.395391,0.924868 -1.541738,2.8064 2.317877,-0.99092 0.395392,0.924868 -3.996341,1.708482 -0.370985,-0.867777 1.608677,-2.902542 -2.409223,1.029971 z m 2.096116,5.704163 1.579077,-0.364144 2.251391,-2.367019 0.276247,1.197921 -1.48106,1.507588 1.993095,0.7128 0.2609,1.13137 -3.0606,-1.142042 -1.579078,0.364144 z m 2.001474,5.028048 q -0.01076,-0.217045 0.07985,-0.395599 0.09681,-0.178861 0.259023,-0.292583 0.168717,-0.107828 0.379561,-0.118279 0.210843,-0.01045 0.383196,0.08047 0.178862,0.09681 0.286689,0.265532 0.114029,0.16841 0.124788,0.385454 0.01076,0.217045 -0.08606,0.395906 -0.09061,0.178555 -0.25933,0.286382 -0.162209,0.113722 -0.373052,0.124173 -0.210843,0.01045 -0.389705,-0.08636 -0.172353,-0.09092 -0.286382,-0.25933 -0.107827,-0.168718 -0.118586,-0.385762 z"
         id="text1-6"
         style="font-weight:900;font-size:6.20889px;line-height:1;font-family:'Red Hat Display';-inkscape-font-specification:'Red Hat Display, Heavy';text-align:center;text-anchor:middle;fill:#253542;stroke-width:0.279929;stroke-linecap:round;stroke-linejoin:round"
         transform="rotate(178.98,33.872139,33.903275)"
         aria-label=" THE PENGUIN COMPANY •" />
    </g>
  </g>
</svg>
